<svg width="129" height="127" viewBox="0 0 129 127" fill="none" xmlns="http://www.w3.org/2000/svg">
<path fill-rule="evenodd" clip-rule="evenodd" d="M0 21.0021C0 16.3412 3.86071 12.5628 8.61409 12.5628H122.559C126.116 12.5628 129 15.3909 129 18.8932V90.7281H0V21.0021Z" fill="#0A3586"/>
<path d="M43 86.503C45.3748 86.503 47.3 84.6113 47.3 82.2778C47.3 79.9443 45.3748 78.0527 43 78.0527C40.6252 78.0527 38.7 79.9443 38.7 82.2778C38.7 84.6113 40.6252 86.503 43 86.503Z" fill="#E43535"/>
<path d="M53.75 86.503C56.1248 86.503 58.05 84.6113 58.05 82.2778C58.05 79.9443 56.1248 78.0527 53.75 78.0527C51.3752 78.0527 49.45 79.9443 49.45 82.2778C49.45 84.6113 51.3752 86.503 53.75 86.503Z" fill="#5EA7FF"/>
<path d="M64.5 86.503C66.8748 86.503 68.8 84.6113 68.8 82.2778C68.8 79.9443 66.8748 78.0527 64.5 78.0527C62.1252 78.0527 60.2 79.9443 60.2 82.2778C60.2 84.6113 62.1252 86.503 64.5 86.503Z" fill="#FFDD95"/>
<path d="M75.25 86.503C77.6248 86.503 79.55 84.6113 79.55 82.2778C79.55 79.9443 77.6248 78.0527 75.25 78.0527C72.8752 78.0527 70.95 79.9443 70.95 82.2778C70.95 84.6113 72.8752 86.503 75.25 86.503Z" fill="#80D25B"/>
<path d="M86 86.503C88.3748 86.503 90.3 84.6113 90.3 82.2778C90.3 79.9443 88.3748 78.0527 86 78.0527C83.6252 78.0527 81.7 79.9443 81.7 82.2778C81.7 84.6113 83.6252 86.503 86 86.503Z" fill="#B4DFFB"/>
<path fill-rule="evenodd" clip-rule="evenodd" d="M0 90.7281H129V101.287C129 104.79 126.125 107.629 122.559 107.629H6.44127C2.88385 107.629 0 104.8 0 101.287V90.7281Z" fill="#D8D8D8"/>
<path d="M64.5 103.404C66.8748 103.404 68.8 101.512 68.8 99.1785C68.8 96.845 66.8748 94.9533 64.5 94.9533C62.1252 94.9533 60.2 96.845 60.2 99.1785C60.2 101.512 62.1252 103.404 64.5 103.404Z" fill="#979797"/>
<path fill-rule="evenodd" clip-rule="evenodd" d="M50.7675 107.629H76.5675L79.9345 122.516C80.4498 124.795 78.9443 126.642 76.5803 126.642H50.7547C48.387 126.642 46.8876 124.784 47.4005 122.516L50.7675 107.629Z" fill="#979797"/>
<path d="M64.5 61.1521C81.1238 61.1521 94.6 47.9104 94.6 31.576C94.6 15.2416 81.1238 2 64.5 2C47.8762 2 34.4 15.2416 34.4 31.576C34.4 47.9104 47.8762 61.1521 64.5 61.1521Z" fill="#B4DFFB" stroke="#0A3586" stroke-width="3.1296" stroke-linecap="round"/>
<path d="M92.45 31.576H36.55" stroke="#0A3586" stroke-width="3.1296" stroke-linecap="square"/>
<path fill-rule="evenodd" clip-rule="evenodd" d="M64.5 61.1521C71.6245 61.1521 77.4828 47.3271 77.4828 31.576C77.4828 15.825 71.6245 2 64.5 2C57.3755 2 51.6828 15.825 51.6828 31.576C51.6828 47.3271 57.3755 61.1521 64.5 61.1521Z" stroke="#0A3586" stroke-width="3.1296" stroke-linecap="round"/>
</svg>
