<svg width="132" height="126" viewBox="0 0 132 126" fill="none" xmlns="http://www.w3.org/2000/svg">
<path fill-rule="evenodd" clip-rule="evenodd" d="M11.1644 76.6892C11.7534 74.3333 14.1892 72.4235 16.6132 72.4235H115.386C117.807 72.4235 120.245 74.3292 120.835 76.6892L131.87 120.829C132.459 123.185 130.992 125.095 128.558 125.095H3.44106C1.0231 125.095 -0.460612 123.189 0.129386 120.829L11.1644 76.6892Z" fill="#595959"/>
<path fill-rule="evenodd" clip-rule="evenodd" d="M18.8343 78.9503H113.213L120.848 114.212H11.1509L18.8343 78.9503Z" fill="#B4DFFB"/>
<path fill-rule="evenodd" clip-rule="evenodd" d="M37.6798 83.4866H92.1465L97.8329 105.433H31.9934L37.6798 83.4866Z" fill="#4796E7"/>
<path fill-rule="evenodd" clip-rule="evenodd" d="M100.914 46.0876V19.7518H30.6854V46.0876C30.6854 49.7238 46.4067 52.6715 65.7998 52.6715C85.1929 52.6715 100.914 49.7238 100.914 46.0876Z" fill="#595959"/>
<path fill-rule="evenodd" clip-rule="evenodd" d="M13.1282 19.5477L67.3755 0L120.71 19.5477L67.3755 35.775L13.1282 19.5477Z" fill="#868686"/>
<path d="M43.7809 19.2953L42.9403 14.9872L26.2961 20.577V57.2715H30.6854V24.1916L43.7809 19.2953Z" fill="#F1BE27"/>
<path d="M26.5924 54.0563L20.3311 66.3792L24.2441 68.3676L30.5055 56.0446L26.5924 54.0563Z" fill="#FF462B"/>
<path d="M26.7394 56.2466L32.4697 67.3164L36.3674 65.2995L30.6371 54.2297L26.7394 56.2466Z" fill="#FF462B"/>
<path d="M26.5507 56.1698L26.5397 69.3355L30.929 69.3377L30.94 56.172L26.5507 56.1698Z" fill="#FF462B"/>
</svg>
